<?xml version="1.0" standalone="no"?>
<!DOCTYPE svg PUBLIC "-//W3C//DTD SVG 20010904//EN"
 "http://www.w3.org/TR/2001/REC-SVG-20010904/DTD/svg10.dtd">
<svg version="1.0" xmlns="http://www.w3.org/2000/svg"
 width="331.000000pt" height="331.000000pt" viewBox="0 0 331.000000 331.000000"
 preserveAspectRatio="xMidYMid meet">
<metadata>
Created by potrace 1.14, written by Peter Selinger 2001-2017
</metadata>
<g transform="translate(0.000000,331.000000) scale(0.100000,-0.100000)"
fill="#000000" stroke="none">
<path d="M1445 2962 c-101 -20 -290 -71 -380 -104 -436 -159 -700 -390 -789
-688 -15 -50 -15 -50 7 -45 12 2 52 11 88 19 37 9 78 17 90 20 13 2 65 14 114
26 50 12 97 23 105 25 28 6 275 75 340 95 36 11 68 20 73 20 4 0 -2 -18 -13
-39 -68 -134 -142 -371 -167 -536 -2 -16 -7 -41 -11 -55 -3 -14 -7 -191 -8
-393 l-2 -369 -69 -23 c-116 -39 -227 -106 -290 -175 -31 -33 -61 -100 -57
-127 1 -7 2 -17 3 -22 6 -43 355 -165 566 -197 28 -5 52 -9 55 -9 3 -1 37 -5
75 -9 39 -5 78 -10 87 -12 38 -6 259 -17 353 -17 112 0 547 12 646 18 35 2
123 6 194 10 397 20 514 45 574 121 41 52 11 137 -119 339 -36 55 -82 118
-102 141 -41 44 -120 88 -187 103 -53 12 -165 11 -227 -1 -27 -5 -62 -12 -79
-15 -16 -2 -118 -34 -225 -70 -203 -67 -303 -89 -405 -87 -104 1 -280 15 -287
22 -12 12 -86 217 -109 300 -71 263 -82 527 -33 752 l17 74 27 -32 27 -33 75
88 c92 109 197 248 245 325 19 32 39 55 43 53 4 -3 25 -7 46 -10 136 -21 166
-25 224 -30 36 -3 83 -8 105 -10 172 -16 675 -25 675 -12 0 16 -50 98 -89 147
-169 210 -451 346 -833 400 -124 18 -331 30 -373 22z"/>
<path d="M2017 2320 c-14 -11 -28 -28 -31 -38 -5 -14 -21 -17 -106 -19 -112
-1 -155 -17 -178 -66 -17 -36 2 -72 82 -155 57 -60 61 -67 62 -112 2 -115 81
-134 133 -32 9 17 20 22 50 22 32 0 43 -6 65 -35 43 -56 139 -75 181 -35 30
28 69 21 90 -18 20 -37 47 -67 67 -75 36 -13 107 73 121 148 11 60 -30 81
-160 84 l-43 1 0 40 c0 31 -7 46 -34 74 -19 18 -55 42 -81 51 -38 15 -51 28
-81 77 -38 66 -49 79 -81 96 -28 15 -26 16 -56 -8z"/>
<path d="M2725 1809 c-75 -51 -193 -94 -306 -113 -20 -4 -54 -20 -75 -36 -20
-17 -52 -40 -71 -51 -18 -11 -33 -26 -33 -33 0 -7 15 -33 34 -57 24 -32 36
-60 41 -99 11 -87 66 -232 81 -217 2 2 -5 35 -15 73 -11 38 -19 70 -18 71 2 1
20 -32 42 -74 39 -73 75 -125 75 -107 0 4 -20 50 -45 101 -42 86 -59 163 -36
163 9 0 19 -23 47 -110 11 -36 30 -66 53 -88 64 -59 65 -59 58 -26 -3 18 2 62
13 103 10 39 19 74 19 76 1 3 1 24 2 48 1 40 2 37 32 -50 30 -86 68 -155 80
-143 3 3 8 47 11 99 8 126 17 155 76 235 27 38 50 72 50 76 0 19 -16 16 -58
-11 -105 -66 -192 -97 -192 -70 0 10 28 45 86 106 34 37 91 141 82 150 -2 2
-17 -5 -33 -16z"/>
<path d="M1721 1690 c-103 -34 -216 -133 -261 -225 -12 -24 -24 -68 -27 -97
-6 -62 2 -72 85 -107 68 -28 131 -30 174 -3 31 19 51 25 123 37 61 10 91 18
117 31 28 14 78 63 78 76 0 4 -17 24 -37 44 -23 22 -29 32 -16 25 32 -17 61
-13 84 10 23 23 19 44 -17 99 -29 42 -30 50 -3 50 11 0 17 5 14 10 -15 25
-114 -22 -132 -62 -9 -20 -11 -17 -22 24 -14 49 -51 92 -87 100 -12 3 -45 -2
-73 -12z"/>
</g>
</svg>
