<?xml version="1.0" encoding="UTF-8"?>
<svg width="700pt" style="fill: #fff;" height="700pt" version="1.1" viewBox="0 0 700 700" xmlns="http://www.w3.org/2000/svg" xmlns:xlink="http://www.w3.org/1999/xlink">
 
 <g>
  <path d="m350 44.801c62.379 0 122.2 24.777 166.31 68.887s68.887 103.93 68.887 166.31-24.777 122.2-68.887 166.31-103.93 68.887-166.31 68.887-122.2-24.777-166.31-68.887-68.887-103.93-68.887-166.31 24.777-122.2 68.887-166.31 103.93-68.887 166.31-68.887m0-44.801c-74.262 0-145.48 29.5-197.99 82.012-52.512 52.508-82.012 123.73-82.012 197.99s29.5 145.48 82.012 197.99c52.508 52.512 123.73 82.012 197.99 82.012s145.48-29.5 197.99-82.012c52.512-52.508 82.012-123.73 82.012-197.99s-29.5-145.48-82.012-197.99c-52.508-52.512-123.73-82.012-197.99-82.012z"/>
  <path d="m352.57 131.6 6.0469 0.55859h0.003906c14.973 0.94531 29.629 4.7461 43.176 11.199 12.098 5.5703 22.414 14.391 29.793 25.48 5.6172 8.7344 9.0938 18.676 10.133 29.008 1.1719 8.9375 0.44531 18.02-2.125 26.656-3.1992 10.305-8.7578 19.723-16.242 27.496-8.5586 8.5664-17.938 16.277-28 23.016-5.6016 3.8633-10.586 7.8945-15.848 11.93-4.7617 3.9336-8.3477 9.1094-10.359 14.949-1.1211 3.0234-2.4062 6.0469-3.5859 9.0703v0.003906c-1.4414 4.0195-4.0859 7.5039-7.5703 9.9766-3.4844 2.4727-7.6445 3.8203-11.918 3.8555-4.8359 0.53125-9.7266-0.24219-14.168-2.2422-6.8203-3.332-11.57-9.7969-12.711-17.301-1.7852-10.395 0.63281-21.07 6.7227-29.684 4.8438-7.082 10.777-13.355 17.582-18.59 7.3359-5.9922 14.895-11.703 22.398-17.695 6.2305-4.7656 11.445-10.727 15.344-17.527 3.0312-5.7734 4.2773-12.316 3.5781-18.797-0.69922-6.4844-3.3086-12.609-7.4961-17.605-4.4414-4.8398-10.34-8.1055-16.801-9.2969-8.6016-2.0078-17.566-1.8516-26.094 0.44922-8.8516 2.418-16.223 8.543-20.219 16.801-2.6328 4.9297-4.9297 9.9688-7.3906 14.953-1.8086 3.7656-4.25 7.1953-7.2227 10.133-5.2109 4.5781-12.086 6.7891-18.984 6.1055-4.1992-0.10938-8.3086-1.2227-11.984-3.2461-3.3867-1.7539-6.2227-4.4062-8.1992-7.668-1.9766-3.2578-3.0156-7-3-10.812-0.28906-12.367 3.6641-24.461 11.199-34.273 8.7109-11.773 20.273-21.141 33.598-27.215 10.055-4.7734 20.816-7.875 31.867-9.1836l6.2734-0.61719z"/>
  <path d="m341.43 428.4c-1.6797-0.33594-3.3594-0.61719-4.9844-1.0625-9.9453-2.6016-17.957-9.9648-21.391-19.652-3.4336-9.6914-1.8398-20.453 4.2461-28.734 6.0898-8.2852 15.887-13.016 26.16-12.629 10.273 0.38672 19.688 5.8359 25.141 14.551s6.2305 19.566 2.082 28.973-12.688 16.145-22.801 17.996l-2.7422 0.55859z"/>
  <use x="70" y="644" xlink:href="#x"/>
  <use x="90.550781" y="644" xlink:href="#d"/>
  <use x="104.359375" y="644" xlink:href="#a"/>
  <use x="123.347656" y="644" xlink:href="#g"/>
  <use x="142.242188" y="644" xlink:href="#c"/>
  <use x="155.628906" y="644" xlink:href="#a"/>
  <use x="174.617188" y="644" xlink:href="#l"/>
  <use x="204.410156" y="644" xlink:href="#f"/>
  <use x="224.453125" y="644" xlink:href="#k"/>
  <use x="252.453125" y="644" xlink:href="#j"/>
  <use x="274.011719" y="644" xlink:href="#g"/>
  <use x="292.90625" y="644" xlink:href="#i"/>
  <use x="302.503906" y="644" xlink:href="#e"/>
  <use x="322.4375" y="644" xlink:href="#f"/>
  <use x="342.480469" y="644" xlink:href="#b"/>
  <use x="361.71875" y="644" xlink:href="#w"/>
  <use x="397.332031" y="644" xlink:href="#v"/>
  <use x="420.574219" y="644" xlink:href="#a"/>
  <use x="439.5625" y="644" xlink:href="#h"/>
  <use x="456.230469" y="644" xlink:href="#i"/>
  <use x="465.828125" y="644" xlink:href="#u"/>
  <use x="485.871094" y="644" xlink:href="#e"/>
  <use x="505.804688" y="644" xlink:href="#h"/>
  <use x="70" y="672" xlink:href="#t"/>
  <use x="82.183594" y="672" xlink:href="#d"/>
  <use x="95.992188" y="672" xlink:href="#b"/>
  <use x="115.226562" y="672" xlink:href="#s"/>
  <use x="154.152344" y="672" xlink:href="#c"/>
  <use x="167.535156" y="672" xlink:href="#r"/>
  <use x="187.46875" y="672" xlink:href="#a"/>
  <use x="216.207031" y="672" xlink:href="#q"/>
  <use x="239.640625" y="672" xlink:href="#b"/>
  <use x="258.878906" y="672" xlink:href="#p"/>
  <use x="278.8125" y="672" xlink:href="#e"/>
  <use x="308.492188" y="672" xlink:href="#o"/>
  <use x="329.015625" y="672" xlink:href="#d"/>
  <use x="342.820312" y="672" xlink:href="#b"/>
  <use x="362.058594" y="672" xlink:href="#n"/>
  <use x="371.65625" y="672" xlink:href="#a"/>
  <use x="390.648438" y="672" xlink:href="#m"/>
  <use x="407.242188" y="672" xlink:href="#c"/>
 </g>
</svg>
